<svg version="1.2" xmlns="http://www.w3.org/2000/svg" viewBox="0 0 160 300" width="160" height="300">
	<title>393386-PCQ9TI-373-ai</title>
	<defs>
		<clipPath clipPathUnits="userSpaceOnUse" id="cp1">
			<path d="m580 650h-1000v-1000h1000z"/>
		</clipPath>
		<linearGradient id="g1" x2="1" gradientUnits="userSpaceOnUse" gradientTransform="matrix(0,-416.918,123,0,-627.027,423.881)">
			<stop offset="0" stop-color="#292929" stop-opacity="0"/>
			<stop offset="1" stop-color="#292929" stop-opacity="1"/>
		</linearGradient>
	</defs>
	<style>
		.s0 { opacity: .5;fill: url(#g1) } 
		.s1 { fill: #1f1f1f } 
		.s2 { fill: #ffffff } 
		.s3 { fill: #881f20 } 
		.s4 { fill: #b5292a } 
		.s5 { fill: #661718 } 
		.s6 { fill: #1a5780 } 
		.s7 { fill: #292929 } 
		.s8 { fill: #333333 } 
		.s9 { fill: #e2413e } 
		.s10 { fill: #fafafa } 
		.s11 { fill: #0d68be } 
		.s12 { opacity: .1;fill: #ffffff } 
	</style>
	<g id="Objects">
		<g id="&lt;Clip Group&gt;" clip-path="url(#cp1)">
			<g id="&lt;Group&gt;">
				<path id="&lt;Path&gt;" class="s0" d="m141.1 423.9h-123v-416.9h123z"/>
				<g id="&lt;Group&gt;">
					<path id="&lt;Path&gt;" class="s1" d="m64.9 66.2h-31.4v-8.3h31.4z"/>
					<path id="&lt;Path&gt;" class="s1" d="m64.9 90.6l-31.4-23.8v-8.3l31.4 23.8z"/>
					<path id="&lt;Path&gt;" class="s1" d="m94.2 66.2h31.4v-8.3h-31.4z"/>
					<path id="&lt;Path&gt;" class="s1" d="m94.2 90.6l31.4-23.8v-8.3l-31.4 23.8z"/>
				</g>
				<g id="&lt;Group&gt;">
					<path id="&lt;Path&gt;" class="s1" d="m94.2 237.6h31.4v-8.3h-31.4z"/>
					<path id="&lt;Path&gt;" class="s1" d="m94.2 261.9l31.4-23.7v-8.3l-31.4 23.7z"/>
					<path id="&lt;Path&gt;" class="s1" d="m64.9 237.6h-31.4v-8.3h31.4z"/>
					<path id="&lt;Path&gt;" class="s1" d="m64.9 261.9l-31.4-23.7v-8.3l31.4 23.7z"/>
				</g>
				<path id="&lt;Path&gt;" class="s1" d="m107.8 256.7h-56.5v-59.2h56.5z"/>
				<path id="&lt;Path&gt;" class="s2" d="m79.6 29.9h25.8l18 5h17.7v-27.9h-61.5z"/>
				<path id="&lt;Path&gt;" class="s2" d="m79.6 29.9h-25.9l-18 5h-17.6v-27.9h61.5z"/>
				<path id="&lt;Path&gt;" class="s3" d="m141.1 24.2h-123v-17.2h123z"/>
				<path id="&lt;Path&gt;" class="s1" d="m134.3 204.5h-109.5c-3.7 0-6.7-3-6.7-6.7v-79.7c0-2.9 1.9-5.5 4.6-6.4l30.4-9.8h52.4l30.8 9.8c2.9 0.9 4.8 3.5 4.8 6.4v79.7c0 3.7-3.1 6.7-6.8 6.7z"/>
				<path id="&lt;Path&gt;" class="s4" d="m106.1 105.7l-14.1-88.1c-0.7-4.6-3.9-8.4-8.2-9.9-2.7-1-5.7-1-8.5 0-4.3 1.5-7.4 5.3-8.2 9.9l-14 88.1-25.8 7.4c-7.2 2.1-11.5 9.6-9.5 16.9l8 28.8c6.5 23.6 15.6 46.4 27.3 67.9 12.4 19.2 40.5 19.2 53 0 11.6-21.5 20.7-44.3 27.2-67.9l8-28.8c2-7.3-2.2-14.8-9.5-16.9z"/>
				<path id="&lt;Path&gt;" class="s1" d="m96.4 144.1h-33.7v-37.1c0-9.3 7.5-16.9 16.9-16.9 9.3 0 16.8 7.6 16.8 16.9z"/>
				<path id="&lt;Path&gt;" class="s5" d="m90 93.8c-2.9-2.3-6.5-3.7-10.4-3.7-4 0-7.6 1.4-10.5 3.7v35.3h20.9z"/>
				<g id="&lt;Group&gt;">
					<g id="&lt;Group&gt;">
						<path id="&lt;Compound Path&gt;" fill-rule="evenodd" class="s6" d="m89 123.8l-9.4-7.3-9.5 7.3-1.2-1.6 9-7-11.4-8.7h26.1l-11.4 8.7 9.1 7zm-16.7-15.3l7.2 5.5 7.1-5.5z"/>
					</g>
				</g>
				<path id="&lt;Path&gt;" class="s2" d="m79.6 241.4c-9.4 0-16.9-7.5-16.9-16.8v-80.5h33.7v80.5c0 9.3-7.5 16.8-16.8 16.8z"/>
				<path id="&lt;Path&gt;" class="s4" d="m73.6 174.3l-3.8-30.2h19.5l-3.8 30.2c-0.9 7-11 7-11.9 0z"/>
				<path id="&lt;Path&gt;" class="s1" d="m37.1 92.4h-16.6c-4.7 0-8.4-3.7-8.4-8.4v-34.9c0-4.6 3.7-8.4 8.4-8.4h16.6c4.7 0 8.5 3.8 8.5 8.4v34.9c0 4.7-3.8 8.4-8.5 8.4z"/>
				<path id="&lt;Path&gt;" class="s7" d="m38.5 84.8h-19.4c-3.9 0-7-3.2-7-7.1v-22.3c0-3.9 3.1-7 7-7h19.4c3.9 0 7.1 3.1 7.1 7v22.3c0 3.9-3.2 7.1-7.1 7.1z"/>
				<path id="&lt;Path&gt;" class="s8" d="m38.3 79.1h-19c-4 0-7.2-3.3-7.2-7.3v-10.5c0-4 3.2-7.2 7.2-7.2h19c4 0 7.3 3.2 7.3 7.2v10.5c0 4-3.3 7.3-7.3 7.3z"/>
				<path id="&lt;Path&gt;" class="s1" d="m138.6 92.4h-16.6c-4.7 0-8.4-3.7-8.4-8.4v-34.9c0-4.6 3.7-8.4 8.4-8.4h16.6c4.7 0 8.5 3.8 8.5 8.4v34.9c0 4.7-3.8 8.4-8.5 8.4z"/>
				<path id="&lt;Path&gt;" class="s7" d="m140 84.8h-19.4c-3.9 0-7-3.2-7-7.1v-22.3c0-3.9 3.1-7 7-7h19.4c3.9 0 7.1 3.1 7.1 7v22.3c0 3.9-3.2 7.1-7.1 7.1z"/>
				<path id="&lt;Path&gt;" class="s1" d="m35.8 266.6h-19.4c-5.5 0-9.8-4.4-9.8-9.8v-40.7c0-5.4 4.3-9.8 9.8-9.8h19.4c5.4 0 9.8 4.4 9.8 9.8v40.7c0 5.4-4.4 9.8-9.8 9.8z"/>
				<path id="&lt;Path&gt;" class="s1" d="m142.8 266.6h-19.4c-5.5 0-9.8-4.4-9.8-9.8v-40.7c0-5.4 4.3-9.8 9.8-9.8h19.4c5.4 0 9.8 4.4 9.8 9.8v40.7c0 5.4-4.4 9.8-9.8 9.8z"/>
				<path id="&lt;Path&gt;" class="s9" d="m22.9 38.2h-4.8v-31.2h4.8z"/>
				<path id="&lt;Path&gt;" class="s9" d="m136.2 38.2h4.9v-31.2h-4.9z"/>
				<path id="&lt;Path&gt;" class="s8" d="m139.8 79.1h-19c-4 0-7.2-3.3-7.2-7.3v-10.5c0-4 3.2-7.2 7.2-7.2h19c4 0 7.3 3.2 7.3 7.2v10.5c0 4-3.3 7.3-7.3 7.3z"/>
				<path id="&lt;Path&gt;" class="s7" d="m144.1 257.5h-22.4c-4.5 0-8.1-3.7-8.1-8.2v-25.8c0-4.5 3.6-8.1 8.1-8.1h22.4c4.6 0 8.2 3.6 8.2 8.1v25.8c0 4.5-3.6 8.2-8.2 8.2z"/>
				<path id="&lt;Path&gt;" class="s8" d="m143.9 250.9h-22c-4.6 0-8.3-3.8-8.3-8.4v-12.1c0-4.7 3.7-8.4 8.3-8.4h22c4.7 0 8.4 3.7 8.4 8.4v12.1c0 4.6-3.7 8.4-8.4 8.4z"/>
				<path id="&lt;Path&gt;" class="s7" d="m37.3 257.5h-22.4c-4.6 0-8.2-3.7-8.2-8.2v-25.8c0-4.5 3.6-8.1 8.2-8.1h22.4c4.5 0 8.1 3.6 8.1 8.1v25.8c0 4.5-3.6 8.2-8.1 8.2z"/>
				<path id="&lt;Path&gt;" class="s8" d="m37.1 250.9h-22c-4.7 0-8.4-3.8-8.4-8.4v-12.1c0-4.7 3.7-8.4 8.4-8.4h22c4.6 0 8.3 3.7 8.3 8.4v12.1c0 4.6-3.7 8.4-8.3 8.4z"/>
				<path id="&lt;Path&gt;" class="s4" d="m133.1 279.7h-107v-39h107z"/>
				<path id="&lt;Path&gt;" class="s2" d="m133.1 260.2h-107v-19.5h107z"/>
				<path id="&lt;Path&gt;" class="s9" d="m33.2 288.7h-7.1v-48h7.1z"/>
				<path id="&lt;Path&gt;" class="s9" d="m133.1 288.7h-7.2v-48h7.2z"/>
				<path id="&lt;Path&gt;" class="s3" d="m87.7 104.3v29.2h-15.4v-29.2h-6.5v23.2c0 7.9 6.3 14.2 14.2 14.2 7.8 0 14.2-6.3 14.2-14.2v-23.2z"/>
				<path id="&lt;Path&gt;" class="s2" d="m70.6 95.4h-1.1c-2.1 0-3.7 1.6-3.7 3.7v5.2h6.7c0.6 0 1.1-0.5 1.1-1.1v-4.8c0-1.6-1.3-3-3-3z"/>
				<path id="&lt;Path&gt;" class="s2" d="m89.4 95.4h1.1c2 0 3.7 1.6 3.7 3.7v5.2h-6.7c-0.6 0-1.1-0.5-1.1-1.1v-4.8c0-1.7 1.4-3 3-3z"/>
				<path id="&lt;Path&gt;" class="s7" d="m88.8 102.2h-17.7c-0.7 0-1.2-0.5-1.2-1.2v-1.8c0-0.7 0.5-1.2 1.2-1.2h17.7c0.7 0 1.3 0.5 1.3 1.2v1.8c0 0.7-0.6 1.2-1.3 1.2z"/>
				<path id="&lt;Path&gt;" class="s4" d="m94.2 98.6v29.5c0 6.1-4.9 11-11 11h-6.4c-6.1 0-11-4.9-11-11v-30.8c-2 2.7-3.1 6.1-3.1 9.7v37.1h33.7v-37.1c0-3.1-0.8-5.9-2.2-8.4z"/>
				<path id="&lt;Path&gt;" class="s2" d="m92.2 131.7c0 6.7-5.5 12.2-12.2 12.2-6.8 0-12.3-5.5-12.3-12.2 0-6.8 5.5-12.3 12.3-12.3 6.7 0 12.2 5.5 12.2 12.3z"/>
				<path id="&lt;Path&gt;" class="s7" d="m90.1 124.7c-2.2-3.2-5.9-5.3-10.1-5.3-4.2 0-7.9 2.1-10.1 5.3v2.9c2.2-3.2 5.9-5.3 10.1-5.3 4.2 0 7.9 2.1 10.1 5.3z"/>
				<g id="&lt;Group&gt;">
					<path id="&lt;Compound Path&gt;" class="s10" d="m77.5 33.9v-16.8h4.4v13.2h3.3v3.6z"/>
				</g>
				<path id="&lt;Path&gt;" class="s11" d="m70.5 135.7c0 2.1 0.7 4 1.9 5.6 2.1 1.6 4.7 2.6 7.6 2.6 2.9 0 5.5-1 7.6-2.7 1.2-1.5 1.9-3.5 1.9-5.5 0-5.3-4.3-9.5-9.5-9.5-5.3 0-9.5 4.2-9.5 9.5z"/>
				<path id="&lt;Path&gt;" class="s11" d="m67.7 131.4l0.4 0.6v2.6c0.3 1.4 0.9 2.7 1.7 3.9v-6.8l-1.2-1.4v-3.2q-0.8 2-0.9 4.3z"/>
				<path id="&lt;Path&gt;" class="s11" d="m92.2 131.4l-0.3 0.6v2.6c-0.4 1.4-1 2.7-1.8 3.9v-6.8l1.2-1.4v-3.2q0.9 2 0.9 4.3z"/>
				<path id="&lt;Path&gt;" class="s12" d="m29.6 264.7c-2 0-3.5-1.6-3.5-3.5v-14.6c0-2 1.5-3.5 3.5-3.5 1.9 0 3.5 1.5 3.5 3.5v14.6c0 1.9-1.6 3.5-3.5 3.5z"/>
				<path id="&lt;Path&gt;" class="s12" d="m129.5 264.7c-2 0-3.5-1.6-3.5-3.5v-14.6c0-2 1.5-3.5 3.5-3.5 1.9 0 3.5 1.5 3.5 3.5v14.6c0 1.9-1.6 3.5-3.5 3.5z"/>
				<path id="&lt;Path&gt;" class="s12" d="m81.4 84.8c-2.2 0-3.9-1.8-3.9-3.9v-38.9c0-2.1 1.7-3.8 3.9-3.8 2.1 0 3.8 1.7 3.8 3.8v38.9c0 2.1-1.7 3.9-3.8 3.9z"/>
				<path id="&lt;Path&gt;" class="s12" d="m52.5 115.2l-21.5 5.6c-1.6 0.5-3.4-0.5-3.8-2.2-0.5-1.7 0.5-3.4 2.2-3.9l21.5-5.6c1.7-0.5 3.5 0.5 3.9 2.2 0.4 1.7-0.6 3.5-2.3 3.9z"/>
				<path id="&lt;Path&gt;" class="s12" d="m108.4 115.2l21.5 5.6c1.7 0.5 3.5-0.5 3.9-2.2 0.4-1.7-0.6-3.4-2.3-3.9l-21.5-5.6c-1.7-0.5-3.4 0.5-3.8 2.2-0.5 1.7 0.5 3.5 2.2 3.9z"/>
				<path id="&lt;Path&gt;" class="s12" d="m109.6 150.6l-8.2 36.8c-3.7 20.6 1.5 20.5 1.5 20.5 4.5 1 11-14 11.9-18.5l10.9-35.3c1-4.4-1.8-8.8-6.3-9.8-4.4-1-8.8 1.8-9.8 6.3z"/>
				<path id="&lt;Path&gt;" class="s12" d="m48.9 150.6l8.2 36.8c3.6 20.6-1.6 20.5-1.6 20.5-4.4 1-10.9-14-11.9-18.5l-10.9-35.3c-1-4.4 1.8-8.8 6.3-9.8 4.5-1 8.9 1.8 9.9 6.3z"/>
				<path id="&lt;Path&gt;" class="s12" d="m20.3 200.7c-0.6 0-1.1-0.4-1.1-1v-54.7c0-0.6 0.5-1.1 1.1-1.1 0.6 0 1.1 0.5 1.1 1.1v54.7c0 0.6-0.5 1-1.1 1z"/>
				<path id="&lt;Path&gt;" class="s12" d="m138.1 200.7c-0.6 0-1.1-0.4-1.1-1v-54.7c0-0.6 0.5-1.1 1.1-1.1 0.6 0 1 0.5 1 1.1v54.7c0 0.6-0.4 1-1 1z"/>
				<path id="&lt;Path&gt;" class="s12" d="m58.4 60.2h-11.3c-0.5 0-0.9-0.3-0.9-0.8 0-0.5 0.4-0.9 0.9-0.9h11.3c0.4 0 0.8 0.4 0.8 0.9 0 0.5-0.4 0.8-0.8 0.8z"/>
				<path id="&lt;Path&gt;" class="s12" d="m63.5 22.6h-38.2c-0.7 0-1.2-0.6-1.2-1.3 0-0.7 0.5-1.3 1.2-1.3h38.2c0.7 0 1.3 0.6 1.3 1.3 0 0.7-0.6 1.3-1.3 1.3z"/>
				<path id="&lt;Path&gt;" class="s12" d="m120.9 276.6h-81.5c-1 0-1.8-0.8-1.8-1.8 0-1 0.8-1.8 1.8-1.8h81.5c1 0 1.8 0.8 1.8 1.8 0 1-0.8 1.8-1.8 1.8z"/>
				<path id="&lt;Path&gt;" class="s12" d="m133.7 22.6h-38.2c-0.7 0-1.3-0.6-1.3-1.3 0-0.7 0.6-1.3 1.3-1.3h38.2c0.7 0 1.3 0.6 1.3 1.3 0 0.7-0.6 1.3-1.3 1.3z"/>
				<path id="&lt;Path&gt;" class="s12" d="m55.8 78.2l-9.2-6.5c-0.4-0.3-0.5-0.8-0.2-1.2 0.3-0.4 0.8-0.5 1.2-0.2l9.2 6.5c0.4 0.2 0.5 0.8 0.2 1.2-0.2 0.4-0.8 0.4-1.2 0.2z"/>
				<path id="&lt;Path&gt;" class="s12" d="m103.7 78.2l9.2-6.5c0.4-0.3 0.5-0.8 0.2-1.2-0.3-0.4-0.8-0.5-1.2-0.2l-9.2 6.5c-0.4 0.2-0.5 0.8-0.2 1.2 0.2 0.4 0.8 0.4 1.2 0.2z"/>
				<path id="&lt;Path&gt;" class="s12" d="m111.7 60.2h-11.3c-0.5 0-0.8-0.3-0.8-0.8 0-0.5 0.3-0.9 0.8-0.9h11.3c0.5 0 0.9 0.4 0.9 0.9 0 0.5-0.4 0.8-0.9 0.8z"/>
				<path id="&lt;Path&gt;" class="s12" d="m79.7 176.8c-1.6 0-2.9-1.3-2.9-2.8v-23.3c0-1.6 1.3-2.9 2.9-2.9 1.6 0 2.9 1.3 2.9 2.9v23.3c0 1.5-1.3 2.8-2.9 2.8z"/>
				<path id="&lt;Path&gt;" class="s12" d="m79.7 218.8c-1.6 0-2.9-1.3-2.9-2.8v-29c0-1.6 1.3-2.9 2.9-2.9 1.6 0 2.9 1.3 2.9 2.9v29c0 1.5-1.3 2.8-2.9 2.8z"/>
				<path id="&lt;Path&gt;" class="s7" d="m88.1 156.5h-16.9c-0.9 0-1.6-0.7-1.6-1.7v-5.3c0-0.9 0.7-1.7 1.6-1.7h16.9c0.9 0 1.7 0.8 1.7 1.7v5.3c0 1-0.8 1.7-1.7 1.7z"/>
				<path id="&lt;Path&gt;" class="s12" d="m20.3 36.7c-1 0-1.8-0.8-1.8-1.8v-13.9c0-1 0.8-1.8 1.8-1.8 1 0 1.8 0.8 1.8 1.8v13.9c0 1-0.8 1.8-1.8 1.8z"/>
				<path id="&lt;Path&gt;" class="s12" d="m138.6 36.7c-1 0-1.8-0.8-1.8-1.8v-13.9c0-1 0.8-1.8 1.8-1.8 1.1 0 1.9 0.8 1.9 1.8v13.9c0 1-0.8 1.8-1.9 1.8z"/>
				<path id="&lt;Path&gt;" class="s12" d="m115 438.3c-2.8 0-5.1-2.3-5.1-5v-159.5c0-2.7 2.3-5 5.1-5 2.7 0 5 2.3 5 5v159.5c0 2.7-2.3 5-5 5z"/>
				<path id="&lt;Path&gt;" class="s12" d="m14.2 297.4c-2.8 0-5-2.2-5-5v-34.8c0-2.8 2.2-5 5-5 2.8 0 5 2.2 5 5v34.8c0 2.8-2.2 5-5 5z"/>
				<path id="&lt;Path&gt;" class="s12" d="m17.3 114.9c-2.7 0-5-2.3-5-5.1v-34.8c0-2.7 2.3-5 5-5 2.8 0 5.1 2.3 5.1 5v34.8c0 2.8-2.3 5.1-5.1 5.1z"/>
				<path id="&lt;Path&gt;" class="s12" d="m136.8 122.3c-2.8 0-5-2.3-5-5v-34.8c0-2.8 2.2-5.1 5-5.1 2.8 0 5 2.3 5 5.1v34.8c0 2.7-2.2 5-5 5z"/>
				<path id="&lt;Path&gt;" class="s12" d="m14.2 367.6c-2.8 0-5-2.2-5-5v-53.7c0-2.7 2.2-5 5-5 2.8 0 5 2.3 5 5v53.7c0 2.8-2.2 5-5 5z"/>
				<path id="&lt;Path&gt;" class="s12" d="m54.2 445.6c-2.8 0-5-2.3-5-5.1v-13.6c0-2.8 2.2-5 5-5 2.8 0 5 2.2 5 5v13.6c0 2.8-2.2 5.1-5 5.1z"/>
				<path id="&lt;Path&gt;" class="s12" d="m147.4 462.5c-2.8 0-5-2.2-5-5v-135.2c0-2.8 2.2-5.1 5-5.1 2.8 0 5 2.3 5 5.1v135.2c0 2.8-2.2 5-5 5z"/>
				<path id="&lt;Path&gt;" class="s12" d="m147.1 307.6c-2.8 0-5.1-2.3-5.1-5v-59.5c0-2.8 2.3-5 5.1-5 2.7 0 5 2.2 5 5v59.5c0 2.7-2.3 5-5 5z"/>
				<path id="&lt;Path&gt;" class="s12" d="m91.2 456.8c-2.8 0-5-2.3-5-5v-162.7c0-2.8 2.2-5 5-5 2.8 0 5 2.2 5 5v162.7c0 2.7-2.2 5-5 5z"/>
				<path id="&lt;Path&gt;" class="s12" d="m91.2 478.2c-2.8 0-5-2.2-5-5v-5.9c0-2.8 2.2-5 5-5 2.8 0 5 2.2 5 5v5.9c0 2.8-2.2 5-5 5z"/>
				<path id="&lt;Path&gt;" class="s12" d="m54.2 416.6c-2.8 0-5-2.3-5-5.1v-149.7c0-2.8 2.2-5.1 5-5.1 2.8 0 5 2.3 5 5.1v149.7c0 2.8-2.2 5.1-5 5.1z"/>
			</g>
		</g>
	</g>
</svg>