<svg version="1.2" xmlns="http://www.w3.org/2000/svg" viewBox="0 0 160 300" width="160" height="300">
	<title>393386-PCQ9TI-373-ai</title>
	<defs>
		<clipPath clipPathUnits="userSpaceOnUse" id="cp1">
			<path d="m580 650h-1000v-1000h1000z"/>
		</clipPath>
		<linearGradient id="g1" x2="1" gradientUnits="userSpaceOnUse" gradientTransform="matrix(0,-416.918,118.904,0,-650.549,423.363)">
			<stop offset="0" stop-color="#292929" stop-opacity="0"/>
			<stop offset="1" stop-color="#292929" stop-opacity="1"/>
		</linearGradient>
	</defs>
	<style>
		.s0 { opacity: .5;fill: url(#g1) } 
		.s1 { fill: #1f1f1f } 
		.s2 { fill: #e9662c } 
		.s3 { fill: #ebaf3c } 
		.s4 { fill: #f0c419 } 
		.s5 { fill: #292929 } 
		.s6 { fill: #333333 } 
		.s7 { fill: #f7e041 } 
		.s8 { opacity: .2;fill: #ffffff } 
		.s9 { opacity: .1;fill: #ffffff } 
	</style>
	<g id="Objects">
		<g id="&lt;Clip Group&gt;" clip-path="url(#cp1)">
			<g id="&lt;Group&gt;">
				<path id="&lt;Path&gt;" class="s0" d="m139.8 423.4h-118.9v-417h118.9z"/>
				<g id="&lt;Group&gt;">
					<path id="&lt;Path&gt;" class="s1" d="m65.6 65.7h-31.4v-8.3h31.4z"/>
					<path id="&lt;Path&gt;" class="s1" d="m65.6 90.1l-31.4-23.8v-8.3l31.4 23.8z"/>
					<path id="&lt;Path&gt;" class="s1" d="m94.9 65.7h31.4v-8.3h-31.4z"/>
					<path id="&lt;Path&gt;" class="s1" d="m94.9 90.1l31.4-23.8v-8.3l-31.4 23.8z"/>
				</g>
				<g id="&lt;Group&gt;">
					<path id="&lt;Path&gt;" class="s1" d="m94.9 237.1h31.4v-8.4h-31.4z"/>
					<path id="&lt;Path&gt;" class="s1" d="m94.9 261.4l31.4-23.7v-8.4l-31.4 23.8z"/>
					<path id="&lt;Path&gt;" class="s1" d="m65.6 237.1h-31.4v-8.4h31.4z"/>
					<path id="&lt;Path&gt;" class="s1" d="m65.6 261.4l-31.4-23.7v-8.4l31.4 23.8z"/>
				</g>
				<path id="&lt;Path&gt;" class="s1" d="m108.5 256.2h-56.5v-59.2h56.5z"/>
				<path id="&lt;Path&gt;" class="s2" d="m80.3 29.3h25.8l18 5h17.7v-27.9h-61.5z"/>
				<path id="&lt;Path&gt;" class="s2" d="m80.3 29.3h-25.9l-18 5h-17.6v-27.9h61.5z"/>
				<path id="&lt;Path&gt;" class="s3" d="m141.8 23.7h-123.1v-17.3h123z"/>
				<path id="&lt;Path&gt;" class="s1" d="m135 204h-109.5c-3.7 0-6.8-3-6.8-6.7v-79.7c0-2.9 1.9-5.5 4.7-6.4l30.4-9.8h52.4l30.8 9.8c2.8 0.9 4.8 3.5 4.8 6.4v79.7c0 3.7-3.1 6.7-6.8 6.7z"/>
				<path id="&lt;Path&gt;" class="s4" d="m106.8 105.2l-14.1-88.2c-0.7-4.5-3.9-8.3-8.2-9.8-2.8-1-5.7-1-8.5 0-4.3 1.5-7.5 5.3-8.2 9.8l-14 88.2-25.8 7.4c-7.2 2-11.5 9.6-9.5 16.8l8 28.9c6.5 23.6 15.6 46.4 27.3 67.9 12.4 19.2 40.5 19.2 53 0 11.6-21.5 20.7-44.3 27.2-67.9l8-28.9c2-7.2-2.3-14.8-9.5-16.8z"/>
				<path id="&lt;Path&gt;" class="s1" d="m97.1 143.6h-33.7v-37.1c0-9.3 7.5-16.9 16.9-16.9 9.3 0 16.8 7.6 16.8 16.9z"/>
				<path id="&lt;Path&gt;" class="s3" d="m90.7 93.2c-2.9-2.2-6.5-3.6-10.5-3.6-3.9 0-7.5 1.4-10.4 3.6v35.4h20.9z"/>
				<g id="&lt;Group&gt;">
					<g id="&lt;Group&gt;">
						<path id="&lt;Compound Path&gt;" fill-rule="evenodd" class="s2" d="m89.7 123.3l-9.5-7.3-9.4 7.3-1.3-1.6 9.1-7-11.4-8.8h26.1l-11.4 8.8 9.1 7zm-16.7-15.3l7.2 5.5 7.1-5.5z"/>
					</g>
				</g>
				<path id="&lt;Path&gt;" class="s2" d="m80.3 240.9c-9.4 0-16.9-7.5-16.9-16.9v-80.4h33.7v80.4c0 9.4-7.5 16.9-16.9 16.9z"/>
				<path id="&lt;Path&gt;" class="s4" d="m74.3 173.8l-3.8-30.2h19.5l-3.8 30.2c-0.9 7-11 7-11.9 0z"/>
				<path id="&lt;Path&gt;" class="s1" d="m37.8 91.9h-16.6c-4.7 0-8.4-3.7-8.4-8.4v-34.9c0-4.7 3.7-8.4 8.4-8.4h16.6c4.7 0 8.5 3.7 8.5 8.4v34.9c0 4.7-3.8 8.4-8.5 8.4z"/>
				<path id="&lt;Path&gt;" class="s5" d="m39.2 84.3h-19.4c-3.9 0-7.1-3.2-7.1-7.1v-22.3c0-3.9 3.2-7.1 7.1-7.1h19.4c3.9 0 7 3.2 7 7.1v22.3c0 3.9-3.1 7.1-7 7.1z"/>
				<path id="&lt;Path&gt;" class="s6" d="m39 78.5h-19c-4 0-7.3-3.2-7.3-7.2v-10.5c0-4 3.3-7.2 7.3-7.2h19c4 0 7.3 3.2 7.3 7.2v10.5c0 4-3.3 7.2-7.3 7.2z"/>
				<path id="&lt;Path&gt;" class="s1" d="m139.3 91.9h-16.6c-4.7 0-8.5-3.7-8.5-8.4v-34.9c0-4.7 3.8-8.4 8.5-8.4h16.6c4.7 0 8.4 3.7 8.4 8.4v34.9c0 4.7-3.7 8.4-8.4 8.4z"/>
				<path id="&lt;Path&gt;" class="s5" d="m140.7 84.3h-19.4c-3.9 0-7-3.2-7-7.1v-22.3c0-3.9 3.1-7.1 7-7.1h19.4c3.9 0 7.1 3.2 7.1 7.1v22.3c0 3.9-3.2 7.1-7.1 7.1z"/>
				<path id="&lt;Path&gt;" class="s1" d="m36.5 266h-19.5c-5.4 0-9.8-4.3-9.8-9.8l0.1-40.6c0-5.4 4.3-9.8 9.7-9.8h19.5c5.4 0 9.8 4.4 9.8 9.8v40.6c0 5.5-4.4 9.8-9.8 9.8z"/>
				<path id="&lt;Path&gt;" class="s1" d="m143.5 266h-19.5c-5.4 0-9.8-4.3-9.8-9.8l0.1-40.6c0-5.4 4.3-9.8 9.7-9.8h19.5c5.4 0 9.8 4.4 9.8 9.8v40.6c0 5.5-4.4 9.8-9.8 9.8z"/>
				<path id="&lt;Path&gt;" class="s7" d="m23.6 37.7h-4.9v-31.3h4.9z"/>
				<path id="&lt;Path&gt;" class="s7" d="m136.9 37.7h4.8v-31.3h-4.8z"/>
				<path id="&lt;Path&gt;" class="s6" d="m140.5 78.5h-19c-4 0-7.3-3.2-7.3-7.2v-10.5c0-4 3.3-7.2 7.3-7.2h19c4 0 7.3 3.2 7.3 7.2v10.5c0 4-3.3 7.2-7.3 7.2z"/>
				<path id="&lt;Path&gt;" class="s5" d="m144.8 257h-22.4c-4.5 0-8.2-3.7-8.2-8.2v-25.8c0-4.5 3.7-8.1 8.2-8.1h22.4c4.5 0 8.2 3.6 8.2 8.1v25.8c0 4.5-3.7 8.2-8.2 8.2z"/>
				<path id="&lt;Path&gt;" class="s6" d="m144.6 250.4h-22c-4.6 0-8.3-3.8-8.3-8.4v-12.1c0-4.7 3.7-8.4 8.3-8.4h22c4.6 0 8.4 3.7 8.4 8.4v12.1c0 4.6-3.8 8.4-8.4 8.4z"/>
				<path id="&lt;Path&gt;" class="s5" d="m38 257h-22.5c-4.5 0-8.1-3.7-8.1-8.2v-25.8c0-4.5 3.6-8.1 8.1-8.1h22.5c4.5 0 8.1 3.6 8.1 8.1v25.8c0 4.5-3.6 8.2-8.1 8.2z"/>
				<path id="&lt;Path&gt;" class="s6" d="m37.7 250.4h-21.9c-4.7 0-8.4-3.8-8.4-8.4v-12.1c0-4.7 3.7-8.4 8.4-8.4h21.9c4.7 0 8.4 3.7 8.4 8.4v12.1c0 4.6-3.7 8.4-8.4 8.4z"/>
				<path id="&lt;Path&gt;" class="s4" d="m133.8 279.2h-107.1v-39h107z"/>
				<path id="&lt;Path&gt;" class="s2" d="m133.8 259.7h-107.1v-19.5h107z"/>
				<path id="&lt;Path&gt;" class="s7" d="m33.9 288.2h-7.1v-48h7.1z"/>
				<path id="&lt;Path&gt;" class="s7" d="m133.8 288.2h-7.2v-48h7.1z"/>
				<path id="&lt;Path&gt;" class="s7" d="m88.4 103.8v29.1h-15.4v-29.1h-6.5v23.2c0 7.8 6.3 14.2 14.2 14.2 7.8 0 14.2-6.4 14.2-14.2v-23.2z"/>
				<path id="&lt;Path&gt;" class="s2" d="m71.3 94.9h-1.1c-2.1 0-3.7 1.6-3.7 3.7v5.2h6.7c0.6 0 1.1-0.5 1.1-1.1v-4.8c0-1.7-1.3-3-3-3z"/>
				<path id="&lt;Path&gt;" class="s2" d="m90.1 94.9h1.1c2 0 3.7 1.6 3.7 3.7v5.2h-6.7c-0.6 0-1.1-0.5-1.1-1.1v-4.8c0-1.7 1.3-3 3-3z"/>
				<path id="&lt;Path&gt;" class="s5" d="m89.5 101.7h-17.7c-0.7 0-1.2-0.6-1.2-1.2v-1.8c0-0.7 0.5-1.2 1.2-1.2h17.7c0.7 0 1.3 0.5 1.3 1.2v1.8c0 0.6-0.6 1.2-1.3 1.2z"/>
				<path id="&lt;Path&gt;" class="s4" d="m94.9 98.1v29.5c0 6.1-5 11-11 11h-6.4c-6.1 0-11-4.9-11-11v-30.8c-2 2.7-3.1 6.1-3.1 9.7v37.1h33.7v-37.1c0-3.1-0.8-5.9-2.2-8.4z"/>
				<path id="&lt;Path&gt;" class="s4" d="m92.9 131.1c0 6.8-5.5 12.3-12.2 12.3-6.8 0-12.3-5.5-12.3-12.3 0-6.7 5.5-12.2 12.3-12.2 6.7 0 12.2 5.5 12.2 12.2z"/>
				<path id="&lt;Path&gt;" class="s5" d="m90.8 124.2c-2.3-3.2-5.9-5.3-10.1-5.3-4.2 0-7.9 2.1-10.1 5.3v2.9c2.2-3.2 5.9-5.3 10.1-5.3 4.2 0 7.8 2.1 10.1 5.3z"/>
				<path id="&lt;Path&gt;" class="s8" d="m30.3 264.2c-2 0-3.6-1.6-3.6-3.5v-14.6c0-2 1.6-3.5 3.5-3.5 2 0 3.5 1.5 3.5 3.5v14.6c0 1.9-1.5 3.5-3.5 3.5z"/>
				<path id="&lt;Path&gt;" class="s8" d="m130.2 264.2c-2 0-3.5-1.6-3.5-3.5v-14.6c0-2 1.5-3.5 3.5-3.5 1.9 0 3.5 1.5 3.5 3.5v14.6c0 1.9-1.6 3.5-3.5 3.5z"/>
				<path id="&lt;Path&gt;" class="s8" d="m82 84.3c-2.1 0-3.8-1.8-3.8-3.9v-38.9c0-2.1 1.7-3.8 3.8-3.8 2.2 0 3.9 1.7 3.9 3.8v38.9c0 2.1-1.7 3.9-3.9 3.9z"/>
				<path id="&lt;Path&gt;" class="s8" d="m53.2 114.7l-21.5 5.6c-1.7 0.5-3.4-0.5-3.8-2.2-0.5-1.7 0.5-3.5 2.2-3.9l21.5-5.6c1.7-0.5 3.4 0.5 3.9 2.2 0.4 1.7-0.6 3.4-2.3 3.9z"/>
				<path id="&lt;Path&gt;" class="s8" d="m109.1 114.7l21.5 5.6c1.7 0.5 3.4-0.5 3.9-2.2 0.4-1.7-0.6-3.5-2.3-3.9l-21.5-5.6c-1.7-0.5-3.4 0.5-3.8 2.2-0.5 1.7 0.5 3.4 2.2 3.9z"/>
				<path id="&lt;Path&gt;" class="s8" d="m110.3 150l-8.2 36.9c-3.7 20.5 1.5 20.5 1.5 20.5 4.4 1 10.9-14 11.9-18.5l10.9-35.3c1-4.4-1.8-8.9-6.3-9.8-4.4-1-8.8 1.8-9.8 6.2z"/>
				<path id="&lt;Path&gt;" class="s8" d="m49.6 150l8.1 36.9c3.7 20.5-1.5 20.5-1.5 20.5-4.4 1-10.9-14-11.9-18.5l-10.9-35.3c-1-4.4 1.8-8.9 6.3-9.8 4.4-1 8.9 1.8 9.9 6.2z"/>
				<path id="&lt;Path&gt;" class="s9" d="m21 200.2c-0.6 0-1.1-0.5-1.1-1.1v-54.6c0-0.6 0.5-1.1 1.1-1.1 0.6 0 1.1 0.5 1.1 1.1v54.6c0 0.6-0.5 1.1-1.1 1.1z"/>
				<path id="&lt;Path&gt;" class="s9" d="m138.8 200.2c-0.6 0-1.1-0.5-1.1-1.1v-54.6c0-0.6 0.5-1.1 1-1.1 0.6 0 1.1 0.5 1.1 1.1v54.6c0 0.6-0.5 1.1-1.1 1.1z"/>
				<path id="&lt;Path&gt;" class="s9" d="m59.1 59.7h-11.3c-0.5 0-0.9-0.4-0.9-0.8 0-0.5 0.4-0.9 0.9-0.9h11.3c0.4 0 0.8 0.4 0.8 0.9 0 0.4-0.4 0.8-0.8 0.8z"/>
				<path id="&lt;Path&gt;" class="s8" d="m64.2 22.1h-38.2c-0.7 0-1.3-0.6-1.3-1.3 0.1-0.7 0.6-1.3 1.3-1.3h38.2c0.7 0 1.3 0.6 1.3 1.3 0 0.7-0.6 1.3-1.3 1.3z"/>
				<path id="&lt;Path&gt;" class="s8" d="m121.6 276.1h-81.6c-0.9 0-1.8-0.8-1.8-1.8 0.1-1 0.9-1.8 1.8-1.8h81.6c1 0 1.8 0.8 1.8 1.8 0 1-0.8 1.8-1.8 1.8z"/>
				<path id="&lt;Path&gt;" class="s8" d="m134.4 22.1h-38.2c-0.7 0-1.3-0.6-1.3-1.3 0-0.7 0.6-1.3 1.3-1.3h38.2c0.7 0 1.3 0.6 1.3 1.3 0 0.7-0.6 1.3-1.3 1.3z"/>
				<path id="&lt;Path&gt;" class="s9" d="m56.5 77.7l-9.2-6.5c-0.4-0.3-0.5-0.8-0.2-1.2 0.2-0.4 0.8-0.5 1.2-0.2l9.2 6.4c0.4 0.3 0.5 0.9 0.2 1.2-0.3 0.4-0.8 0.5-1.2 0.3z"/>
				<path id="&lt;Path&gt;" class="s9" d="m104.4 77.7l9.2-6.5c0.4-0.3 0.5-0.8 0.2-1.2-0.3-0.4-0.8-0.5-1.2-0.2l-9.2 6.4c-0.4 0.3-0.5 0.9-0.2 1.2 0.2 0.4 0.8 0.5 1.2 0.3z"/>
				<path id="&lt;Path&gt;" class="s9" d="m112.4 59.7h-11.3c-0.5 0-0.9-0.4-0.9-0.8 0-0.5 0.4-0.9 0.9-0.9h11.3c0.5 0 0.8 0.4 0.8 0.9 0 0.4-0.3 0.8-0.8 0.8z"/>
				<path id="&lt;Path&gt;" class="s8" d="m80.4 176.3c-1.6 0-2.9-1.3-2.9-2.9v-23.2c0-1.6 1.3-2.9 2.9-2.9 1.6 0 2.8 1.3 2.8 2.9v23.2c0 1.6-1.2 2.9-2.8 2.9z"/>
				<path id="&lt;Path&gt;" class="s8" d="m80.4 218.3c-1.6 0-2.9-1.3-2.9-2.9v-29c0-1.6 1.3-2.8 2.9-2.8 1.6 0 2.8 1.2 2.8 2.8v29c0 1.6-1.2 2.9-2.8 2.9z"/>
				<path id="&lt;Path&gt;" class="s5" d="m88.8 156h-16.9c-0.9 0-1.6-0.8-1.6-1.7v-5.3c0-1 0.7-1.7 1.6-1.7h16.9c0.9 0 1.7 0.7 1.7 1.7v5.3c0 0.9-0.8 1.7-1.7 1.7z"/>
				<path id="&lt;Path&gt;" class="s8" d="m21 36.2c-1 0-1.8-0.8-1.8-1.8v-13.9c0-1 0.8-1.9 1.8-1.9 1 0 1.8 0.9 1.8 1.9v13.9c0 1-0.8 1.8-1.8 1.8z"/>
				<path id="&lt;Path&gt;" class="s8" d="m139.3 36.2c-1 0-1.8-0.8-1.8-1.8v-13.9c0-1 0.8-1.9 1.8-1.9 1 0 1.9 0.9 1.9 1.9v13.9c0 1-0.9 1.8-1.9 1.8z"/>
				<path id="&lt;Path&gt;" class="s9" d="m47.3 337.8c2.8 0 5.1-2.2 5.1-5v-59.5c0-2.7-2.3-5-5.1-5-2.7 0-5 2.3-5 5v59.5c0 2.8 2.3 5 5 5z"/>
				<path id="&lt;Path&gt;" class="s9" d="m148.1 296.9c2.8 0 5-2.3 5-5v-34.8c0-2.8-2.2-5-5-5-2.8 0-5 2.2-5 5v34.8c0 2.7 2.2 5 5 5z"/>
				<path id="&lt;Path&gt;" class="s9" d="m18 114.3c-2.7 0-5-2.2-5-5v-34.8c0-2.7 2.3-5 5-5 2.8 0 5.1 2.3 5.1 5v34.8c0 2.8-2.3 5-5.1 5z"/>
				<path id="&lt;Path&gt;" class="s9" d="m137.5 121.8c-2.8 0-5-2.3-5-5.1v-34.8c0-2.7 2.2-5 5-5 2.8 0 5 2.3 5 5v34.8c0 2.8-2.2 5.1-5 5.1z"/>
				<path id="&lt;Path&gt;" class="s9" d="m148.1 327.1c2.8 0 5-2.3 5-5.1v-13.6c0-2.8-2.2-5-5-5-2.8 0-5 2.2-5 5v13.6c0 2.8 2.2 5.1 5 5.1z"/>
				<path id="&lt;Path&gt;" class="s9" d="m108.1 427.4c2.8 0 5-2.3 5-5v-78c0-2.8-2.2-5-5-5-2.8 0-5 2.2-5 5v78c0 2.7 2.2 5 5 5z"/>
				<path id="&lt;Path&gt;" class="s9" d="m14.9 362.1c2.8 0 5-2.3 5-5.1v-35.3c0-2.7-2.2-5-5-5-2.8 0-5 2.3-5 5v35.3c0 2.8 2.2 5.1 5 5.1z"/>
				<path id="&lt;Path&gt;" class="s9" d="m15.2 307.1c2.8 0 5.1-2.3 5.1-5.1v-59.4c0-2.8-2.3-5-5.1-5-2.7 0-5 2.2-5 5v59.4c0 2.8 2.3 5.1 5 5.1z"/>
				<path id="&lt;Path&gt;" class="s9" d="m63 420.6c2.8 0 5.1-2.2 5.1-5v-127c0-2.8-2.3-5-5.1-5-2.7 0-5 2.2-5 5v127c0 2.8 2.3 5 5 5z"/>
				<path id="&lt;Path&gt;" class="s9" d="m63 442.1c2.8 0 5.1-2.3 5.1-5.1v-5.8c0-2.8-2.3-5.1-5.1-5.1-2.7 0-5 2.3-5 5.1v5.8c0 2.8 2.3 5.1 5 5.1z"/>
				<path id="&lt;Path&gt;" class="s9" d="m108.1 334.1c2.8 0 5-2.3 5-5.1v-67.8c0-2.7-2.2-5-5-5-2.8 0-5 2.3-5 5v67.8c0 2.8 2.2 5.1 5 5.1z"/>
				<path id="&lt;Path&gt;" class="s2" d="m80.7 143.4c6.7 0 12.2-5.5 12.2-12.3 0-1.6-0.3-3.1-0.9-4.6l-1 2.8v6h-20.7v-6l-0.9-3c-0.6 1.5-1 3.1-1 4.8 0 6.8 5.5 12.3 12.3 12.3z"/>
				<path id="&lt;Path&gt;" class="s7" d="m71.2 135.1c0 2.1 0.7 4.1 1.9 5.6 2 1.7 4.7 2.7 7.6 2.7 2.9 0 5.5-1 7.6-2.7 1.2-1.6 1.8-3.5 1.8-5.6 0-5.2-4.2-9.4-9.4-9.4-5.3 0-9.5 4.2-9.5 9.4z"/>
				<g id="&lt;Group&gt;">
					<path id="&lt;Compound Path&gt;" class="s2" d="m73.5 32.1v-3.1l6.4-13.7h4.6l-6.1 13.2h4.7v-2.3h3.9v5.9z"/>
				</g>
			</g>
		</g>
	</g>
</svg>