<svg version="1.2" xmlns="http://www.w3.org/2000/svg" viewBox="0 0 160 300" width="160" height="300">
	<title>393386-PCQ9TI-373-ai</title>
	<defs>
		<clipPath clipPathUnits="userSpaceOnUse" id="cp1">
			<path d="m580 650h-1000v-1000h1000z"/>
		</clipPath>
		<linearGradient id="g1" x2="1" gradientUnits="userSpaceOnUse" gradientTransform="matrix(0,-416.918,122.498,0,-629.132,423.929)">
			<stop offset="0" stop-color="#292929" stop-opacity="0"/>
			<stop offset="1" stop-color="#292929" stop-opacity="1"/>
		</linearGradient>
	</defs>
	<style>
		.s0 { opacity: .5;fill: url(#g1) } 
		.s1 { fill: #1f1f1f } 
		.s2 { fill: #dc89d1 } 
		.s3 { fill: #9e5094 } 
		.s4 { fill: #d36bc5 } 
		.s5 { fill: #c2c2c2 } 
		.s6 { fill: #ffffff } 
		.s7 { fill: #292929 } 
		.s8 { fill: #333333 } 
		.s9 { opacity: .1;fill: #ffffff } 
	</style>
	<g id="Objects">
		<g id="&lt;Clip Group&gt;" clip-path="url(#cp1)">
			<g id="&lt;Group&gt;">
				<path id="&lt;Path&gt;" class="s0" d="m141.6 423.9h-122.5v-416.9h122.5z"/>
				<g id="&lt;Group&gt;">
					<path id="&lt;Path&gt;" class="s1" d="m65.7 66.3h-31.4v-8.3h31.4z"/>
					<path id="&lt;Path&gt;" class="s1" d="m65.7 90.6l-31.4-23.7v-8.3l31.4 23.7z"/>
					<path id="&lt;Path&gt;" class="s1" d="m95 66.3h31.4v-8.3h-31.4z"/>
					<path id="&lt;Path&gt;" class="s1" d="m95 90.6l31.4-23.7v-8.3l-31.4 23.7z"/>
				</g>
				<g id="&lt;Group&gt;">
					<path id="&lt;Path&gt;" class="s1" d="m95 237.6h31.4v-8.3h-31.4z"/>
					<path id="&lt;Path&gt;" class="s1" d="m95 262l31.4-23.8v-8.3l-31.4 23.8z"/>
					<path id="&lt;Path&gt;" class="s1" d="m65.7 237.6h-31.4v-8.3h31.4z"/>
					<path id="&lt;Path&gt;" class="s1" d="m65.7 262l-31.4-23.8v-8.3l31.4 23.8z"/>
				</g>
				<path id="&lt;Path&gt;" class="s1" d="m108.6 256.7h-56.5v-59.1h56.5z"/>
				<path id="&lt;Path&gt;" class="s2" d="m80.3 29.9h25.9l18 5h17.6v-27.9h-61.5z"/>
				<path id="&lt;Path&gt;" class="s2" d="m80.3 29.9h-25.8l-18 5h-17.7v-27.9h61.5z"/>
				<path id="&lt;Path&gt;" class="s3" d="m141.8 24.2h-123v-17.2h123z"/>
				<path id="&lt;Path&gt;" class="s1" d="m135.1 204.6h-109.5c-3.7 0-6.8-3-6.8-6.8v-79.6c0-3 1.9-5.6 4.7-6.5l30.3-9.7h52.5l30.8 9.7c2.8 0.9 4.7 3.5 4.7 6.5v79.6c0 3.8-3 6.8-6.7 6.8z"/>
				<path id="&lt;Path&gt;" class="s4" d="m106.8 105.7l-14-88.1c-0.7-4.5-3.9-8.3-8.2-9.9-2.8-0.9-5.7-0.9-8.5 0-4.3 1.6-7.5 5.4-8.2 9.9l-14.1 88.1-25.7 7.4c-7.2 2.1-11.5 9.6-9.5 16.9l8 28.9c6.5 23.6 15.6 46.3 27.2 67.8 12.5 19.3 40.6 19.3 53 0 11.7-21.5 20.8-44.2 27.3-67.8l8-28.9c2-7.3-2.3-14.8-9.5-16.9z"/>
				<path id="&lt;Path&gt;" class="s1" d="m97.2 144.1h-33.7v-37c0-9.4 7.5-16.9 16.8-16.9 9.4 0 16.9 7.5 16.9 16.9z"/>
				<path id="&lt;Path&gt;" class="s5" d="m90.8 93.8c-2.9-2.3-6.5-3.6-10.5-3.6-3.9 0-7.5 1.3-10.4 3.6v35.3h20.9z"/>
				<g id="&lt;Group&gt;">
					<g id="&lt;Group&gt;">
						<path id="&lt;Compound Path&gt;" fill-rule="evenodd" class="s4" d="m89.8 123.9l-9.5-7.4-9.4 7.4-1.3-1.6 9.1-7-11.4-8.8h26.1l-11.4 8.8 9.1 7zm-16.7-15.4l7.2 5.5 7.1-5.5z"/>
					</g>
				</g>
				<path id="&lt;Path&gt;" class="s6" d="m80.3 241.5c-9.3 0-16.8-7.6-16.8-16.9v-80.5h33.7v80.5c0 9.3-7.5 16.9-16.9 16.9z"/>
				<path id="&lt;Path&gt;" class="s4" d="m74.4 174.4l-3.8-30.3h19.5l-3.8 30.3c-0.9 6.9-11 6.9-11.9 0z"/>
				<path id="&lt;Path&gt;" class="s1" d="m37.9 92.5h-16.6c-4.7 0-8.5-3.8-8.5-8.4v-34.9c0-4.7 3.8-8.5 8.5-8.5h16.6c4.7 0 8.4 3.8 8.4 8.5v34.9c0 4.6-3.7 8.4-8.4 8.4z"/>
				<path id="&lt;Path&gt;" class="s7" d="m39.3 84.8h-19.4c-3.9 0-7.1-3.1-7.1-7v-22.3c0-3.9 3.2-7.1 7.1-7.1h19.4c3.9 0 7 3.2 7 7.1v22.3c0 3.9-3.1 7-7 7z"/>
				<path id="&lt;Path&gt;" class="s8" d="m39.1 79.1h-19c-4 0-7.3-3.2-7.3-7.2v-10.5c0-4 3.3-7.3 7.3-7.3h19c4 0 7.2 3.3 7.2 7.3v10.5c0 4-3.2 7.2-7.2 7.2z"/>
				<path id="&lt;Path&gt;" class="s1" d="m139.4 92.5h-16.6c-4.7 0-8.5-3.8-8.5-8.4v-34.9c0-4.7 3.8-8.5 8.5-8.5h16.6c4.7 0 8.4 3.8 8.4 8.5v34.9c0 4.6-3.7 8.4-8.4 8.4z"/>
				<path id="&lt;Path&gt;" class="s7" d="m140.8 84.8h-19.4c-3.9 0-7.1-3.1-7.1-7v-22.3c0-3.9 3.2-7.1 7.1-7.1h19.4c3.9 0 7 3.2 7 7.1v22.3c0 3.9-3.1 7-7 7z"/>
				<path id="&lt;Path&gt;" class="s1" d="m36.6 266.6h-19.5c-5.4 0-9.8-4.4-9.8-9.8v-40.6c0-5.4 4.4-9.8 9.8-9.8h19.5c5.4 0 9.7 4.4 9.7 9.8v40.6c0 5.4-4.3 9.8-9.7 9.8z"/>
				<path id="&lt;Path&gt;" class="s1" d="m143.6 266.6h-19.5c-5.4 0-9.8-4.4-9.8-9.8v-40.6c0-5.4 4.4-9.8 9.8-9.8h19.5c5.4 0 9.7 4.4 9.7 9.8v40.6c0 5.4-4.3 9.8-9.7 9.8z"/>
				<path id="&lt;Path&gt;" class="s4" d="m23.7 38.2h-4.9v-31.2h4.9z"/>
				<path id="&lt;Path&gt;" class="s4" d="m137 38.2h4.8v-31.2h-4.8z"/>
				<path id="&lt;Path&gt;" class="s8" d="m140.6 79.1h-19c-4 0-7.3-3.2-7.3-7.2v-10.5c0-4 3.3-7.3 7.3-7.3h19c4 0 7.2 3.3 7.2 7.3v10.5c0 4-3.2 7.2-7.2 7.2z"/>
				<path id="&lt;Path&gt;" class="s7" d="m144.9 257.5h-22.4c-4.5 0-8.2-3.6-8.2-8.1v-25.8c0-4.5 3.7-8.2 8.2-8.2h22.4c4.5 0 8.2 3.7 8.2 8.2v25.8c0 4.5-3.7 8.1-8.2 8.1z"/>
				<path id="&lt;Path&gt;" class="s8" d="m144.7 250.9h-22c-4.6 0-8.4-3.7-8.4-8.4v-12.1c0-4.6 3.8-8.4 8.4-8.4h22c4.6 0 8.4 3.8 8.4 8.4v12.1c0 4.7-3.8 8.4-8.4 8.4z"/>
				<path id="&lt;Path&gt;" class="s7" d="m38.1 257.5h-22.5c-4.5 0-8.1-3.6-8.1-8.1v-25.8c0-4.5 3.6-8.2 8.1-8.2h22.5c4.5 0 8.1 3.7 8.1 8.2v25.8c0 4.5-3.6 8.1-8.1 8.1z"/>
				<path id="&lt;Path&gt;" class="s8" d="m37.8 250.9h-21.9c-4.7 0-8.4-3.7-8.4-8.4v-12.1c0-4.6 3.7-8.4 8.4-8.4h21.9c4.7 0 8.4 3.8 8.4 8.4v12.1c0 4.7-3.7 8.4-8.4 8.4z"/>
				<path id="&lt;Path&gt;" class="s3" d="m133.8 279.7h-107v-39h107z"/>
				<path id="&lt;Path&gt;" class="s2" d="m133.8 260.2h-107v-19.5h107z"/>
				<path id="&lt;Path&gt;" class="s4" d="m34 288.7h-7.2v-48h7.2z"/>
				<path id="&lt;Path&gt;" class="s4" d="m133.8 288.7h-7.1v-48h7.1z"/>
				<path id="&lt;Path&gt;" class="s6" d="m88.5 104.4v29.1h-15.4v-29.1h-6.5v23.2c0 7.8 6.3 14.2 14.2 14.2 7.8 0 14.2-6.4 14.2-14.2v-23.2z"/>
				<path id="&lt;Path&gt;" class="s6" d="m71.4 95.4h-1.1c-2.1 0-3.7 1.7-3.7 3.8v5.2h6.7c0.6 0 1.1-0.5 1.1-1.1v-4.8c0-1.7-1.3-3.1-3-3.1z"/>
				<path id="&lt;Path&gt;" class="s6" d="m90.2 95.4h1.1c2 0 3.7 1.7 3.7 3.7v5.3h-6.7c-0.6 0-1.1-0.5-1.1-1.1v-4.8c0-1.7 1.3-3.1 3-3.1z"/>
				<path id="&lt;Path&gt;" class="s7" d="m89.6 102.3h-17.7c-0.7 0-1.2-0.6-1.2-1.3v-1.7c0-0.7 0.5-1.3 1.2-1.3h17.7c0.7 0 1.3 0.6 1.3 1.3v1.7c0 0.7-0.6 1.3-1.3 1.3z"/>
				<path id="&lt;Path&gt;" class="s4" d="m95 98.6v29.6c0 6-5 11-11 11h-6.5c-6 0-10.9-5-10.9-11v-30.9c-2 2.8-3.1 6.1-3.1 9.8v37h33.7v-37c0-3.1-0.8-6-2.2-8.5z"/>
				<path id="&lt;Path&gt;" class="s4" d="m93 131.7c0 6.8-5.5 12.3-12.2 12.3-6.8 0-12.3-5.5-12.3-12.3 0-6.8 5.5-12.2 12.3-12.2 6.7 0 12.2 5.4 12.2 12.2z"/>
				<path id="&lt;Path&gt;" class="s7" d="m90.9 124.8c-2.3-3.2-5.9-5.3-10.1-5.3-4.2 0-7.9 2.1-10.1 5.3v2.8c2.2-3.2 5.9-5.3 10.1-5.3 4.2 0 7.8 2.1 10.1 5.3z"/>
				<path id="&lt;Path&gt;" class="s2" d="m71.3 135.7c0 2.1 0.7 4 1.9 5.6 2 1.7 4.7 2.7 7.6 2.7 2.9 0 5.5-1 7.6-2.7 1.1-1.6 1.8-3.5 1.8-5.6 0-5.2-4.2-9.5-9.4-9.5-5.3 0-9.5 4.3-9.5 9.5z"/>
				<path id="&lt;Path&gt;" class="s6" d="m68.5 131.4l0.4 0.7v2.5q0.5 2.2 1.7 4v-6.9l-1.2-1.4v-3.2q-0.8 2-0.9 4.3z"/>
				<path id="&lt;Path&gt;" class="s6" d="m93 131.4l-0.3 0.7v2.5c-0.4 1.4-1 2.8-1.8 4v-6.9l1.2-1.4v-3.2q0.8 2 0.9 4.3z"/>
				<path id="&lt;Path&gt;" class="s9" d="m30.3 264.7c-1.9 0-3.5-1.5-3.5-3.5v-14.6c0-1.9 1.6-3.5 3.5-3.5 2 0 3.5 1.6 3.5 3.5v14.6c0 2-1.5 3.5-3.5 3.5z"/>
				<path id="&lt;Path&gt;" class="s9" d="m130.3 264.7c-2 0-3.5-1.5-3.5-3.5v-14.6c0-1.9 1.5-3.5 3.5-3.5 1.9 0 3.5 1.6 3.5 3.5v14.6c0 2-1.6 3.5-3.5 3.5z"/>
				<path id="&lt;Path&gt;" class="s9" d="m82.1 84.8c-2.1 0-3.8-1.7-3.8-3.8v-38.9c0-2.1 1.7-3.9 3.8-3.9 2.2 0 3.9 1.8 3.9 3.9v38.9c0 2.1-1.7 3.8-3.9 3.8z"/>
				<path id="&lt;Path&gt;" class="s9" d="m53.3 115.3l-21.5 5.6c-1.7 0.4-3.4-0.6-3.8-2.3-0.5-1.7 0.5-3.4 2.2-3.8l21.5-5.7c1.7-0.4 3.4 0.6 3.9 2.3 0.4 1.7-0.6 3.4-2.3 3.9z"/>
				<path id="&lt;Path&gt;" class="s9" d="m109.2 115.3l21.5 5.6c1.7 0.4 3.4-0.6 3.9-2.3 0.4-1.7-0.6-3.4-2.3-3.8l-21.5-5.7c-1.7-0.4-3.4 0.6-3.8 2.3-0.5 1.7 0.5 3.4 2.2 3.9z"/>
				<path id="&lt;Path&gt;" class="s9" d="m110.4 150.6l-8.2 36.9c-3.7 20.5 1.5 20.5 1.5 20.5 4.4 0.9 10.9-14 11.9-18.5l10.9-35.3c1-4.5-1.8-8.9-6.3-9.9-4.4-1-8.8 1.8-9.8 6.3z"/>
				<path id="&lt;Path&gt;" class="s9" d="m49.7 150.6l8.1 36.9c3.7 20.5-1.5 20.5-1.5 20.5-4.4 0.9-10.9-14-11.9-18.5l-10.9-35.3c-1-4.5 1.8-8.9 6.3-9.9 4.4-1 8.9 1.8 9.9 6.3z"/>
				<path id="&lt;Path&gt;" class="s9" d="m21.1 200.8c-0.6 0-1.1-0.5-1.1-1.1v-54.7c0-0.6 0.5-1 1.1-1 0.6 0 1.1 0.4 1.1 1v54.7c0 0.6-0.5 1.1-1.1 1.1z"/>
				<path id="&lt;Path&gt;" class="s9" d="m138.8 200.8c-0.5 0-1-0.5-1-1.1v-54.7c0-0.6 0.5-1 1-1 0.6 0 1.1 0.4 1.1 1v54.7c0 0.6-0.5 1.1-1.1 1.1z"/>
				<path id="&lt;Path&gt;" class="s9" d="m59.2 60.3h-11.3c-0.5 0-0.9-0.4-0.9-0.9 0-0.4 0.4-0.8 0.9-0.8h11.3c0.4 0 0.8 0.4 0.8 0.8 0 0.5-0.4 0.9-0.8 0.9z"/>
				<path id="&lt;Path&gt;" class="s9" d="m64.3 22.6h-38.2c-0.7 0-1.3-0.5-1.3-1.2 0-0.7 0.6-1.3 1.3-1.3h38.2c0.7 0 1.3 0.6 1.3 1.3 0 0.7-0.6 1.2-1.3 1.2z"/>
				<path id="&lt;Path&gt;" class="s9" d="m121.7 276.6h-81.6c-0.9 0-1.8-0.8-1.8-1.8 0-0.9 0.9-1.7 1.8-1.7h81.6c1 0 1.8 0.8 1.8 1.7 0 1-0.8 1.8-1.8 1.8z"/>
				<path id="&lt;Path&gt;" class="s9" d="m134.5 22.6h-38.2c-0.7 0-1.3-0.5-1.3-1.2 0-0.7 0.6-1.3 1.3-1.3h38.2c0.7 0 1.3 0.6 1.3 1.3 0 0.7-0.6 1.2-1.3 1.2z"/>
				<path id="&lt;Path&gt;" class="s9" d="m56.6 78.2l-9.2-6.5c-0.4-0.2-0.5-0.8-0.2-1.2 0.2-0.3 0.8-0.4 1.2-0.2l9.2 6.5c0.4 0.3 0.5 0.8 0.2 1.2-0.3 0.4-0.8 0.5-1.2 0.2z"/>
				<path id="&lt;Path&gt;" class="s9" d="m104.5 78.2l9.2-6.5c0.4-0.2 0.5-0.8 0.2-1.2-0.3-0.3-0.8-0.4-1.2-0.2l-9.2 6.5c-0.4 0.3-0.5 0.8-0.2 1.2 0.2 0.4 0.8 0.5 1.2 0.2z"/>
				<path id="&lt;Path&gt;" class="s9" d="m112.5 60.3h-11.3c-0.5 0-0.9-0.4-0.9-0.9 0-0.4 0.4-0.8 0.9-0.8h11.3c0.5 0 0.8 0.4 0.8 0.8 0 0.5-0.3 0.9-0.8 0.9z"/>
				<path id="&lt;Path&gt;" class="s9" d="m80.5 176.9c-1.6 0-2.9-1.3-2.9-2.9v-23.3c0-1.5 1.3-2.8 2.9-2.8 1.6 0 2.8 1.3 2.8 2.8v23.3c0 1.6-1.2 2.9-2.8 2.9z"/>
				<path id="&lt;Path&gt;" class="s9" d="m80.5 218.9c-1.6 0-2.9-1.3-2.9-2.9v-29c0-1.6 1.3-2.9 2.9-2.9 1.6 0 2.8 1.3 2.8 2.9v29c0 1.6-1.2 2.9-2.8 2.9z"/>
				<path id="&lt;Path&gt;" class="s7" d="m88.9 156.5h-16.9c-0.9 0-1.6-0.7-1.6-1.6v-5.4c0-0.9 0.7-1.6 1.6-1.6h16.9c0.9 0 1.7 0.7 1.7 1.6v5.4c0 0.9-0.8 1.6-1.7 1.6z"/>
				<path id="&lt;Path&gt;" class="s9" d="m21.1 36.8c-1 0-1.8-0.8-1.8-1.8v-14c0-1 0.8-1.8 1.8-1.8 1 0 1.8 0.8 1.8 1.8v14c0 1-0.8 1.8-1.8 1.8z"/>
				<path id="&lt;Path&gt;" class="s9" d="m139.4 36.8c-1 0-1.8-0.8-1.8-1.8v-14c0-1 0.8-1.8 1.8-1.8 1 0 1.9 0.8 1.9 1.8v14c0 1-0.9 1.8-1.9 1.8z"/>
				<path id="&lt;Path&gt;" class="s9" d="m115.7 438.3c-2.7 0-5-2.2-5-5v-159.4c0-2.8 2.3-5 5-5 2.8 0 5.1 2.2 5.1 5v159.4c0 2.8-2.3 5-5.1 5z"/>
				<path id="&lt;Path&gt;" class="s9" d="m15 297.5c-2.8 0-5-2.3-5-5.1v-34.8c0-2.7 2.2-5 5-5 2.8 0 5 2.3 5 5v34.8c0 2.8-2.2 5.1-5 5.1z"/>
				<path id="&lt;Path&gt;" class="s9" d="m18.1 114.9c-2.7 0-5-2.2-5-5v-34.8c0-2.8 2.3-5 5-5 2.8 0 5.1 2.2 5.1 5v34.8c0 2.8-2.3 5-5.1 5z"/>
				<path id="&lt;Path&gt;" class="s9" d="m137.6 122.3c-2.8 0-5-2.2-5-5v-34.8c0-2.8 2.2-5 5-5 2.8 0 5 2.2 5 5v34.8c0 2.8-2.2 5-5 5z"/>
				<path id="&lt;Path&gt;" class="s9" d="m15 367.6c-2.8 0-5-2.2-5-5v-53.6c0-2.8 2.2-5 5-5 2.8 0 5 2.2 5 5v53.6c0 2.8-2.2 5-5 5z"/>
				<path id="&lt;Path&gt;" class="s9" d="m55 445.6c-2.8 0-5-2.2-5-5v-13.6c0-2.8 2.2-5.1 5-5.1 2.8 0 5 2.3 5 5.1v13.6c0 2.8-2.2 5-5 5z"/>
				<path id="&lt;Path&gt;" class="s9" d="m148.2 462.6c-2.8 0-5-2.3-5-5v-135.3c0-2.8 2.2-5 5-5 2.8 0 5 2.2 5 5v135.3c0 2.7-2.2 5-5 5z"/>
				<path id="&lt;Path&gt;" class="s9" d="m147.8 307.6c-2.7 0-5-2.2-5-5v-59.5c0-2.7 2.3-5 5-5 2.8 0 5.1 2.3 5.1 5v59.5c0 2.8-2.3 5-5.1 5z"/>
				<path id="&lt;Path&gt;" class="s9" d="m92 456.8c-2.8 0-5.1-2.2-5.1-5v-162.7c0-2.7 2.3-5 5.1-5 2.7 0 5 2.3 5 5v162.7c0 2.8-2.3 5-5 5z"/>
				<path id="&lt;Path&gt;" class="s9" d="m92 478.3c-2.8 0-5.1-2.3-5.1-5.1v-5.8c0-2.8 2.3-5.1 5.1-5.1 2.7 0 5 2.3 5 5.1v5.8c0 2.8-2.3 5.1-5 5.1z"/>
				<path id="&lt;Path&gt;" class="s9" d="m55 416.6c-2.8 0-5-2.2-5-5v-149.8c0-2.8 2.2-5 5-5 2.8 0 5 2.2 5 5v149.8c0 2.8-2.2 5-5 5z"/>
				<g id="&lt;Group&gt;">
					<path id="&lt;Compound Path&gt;" fill-rule="evenodd" class="s6" d="m75.6 24.6c0-1.1 0.6-2.2 1.6-2.8-1.4-0.6-2.3-1.9-2.3-3.4 0-2.4 2.1-4 5.5-4 3.3 0 5.4 1.5 5.4 3.9 0 1.6-1 2.9-2.5 3.5 1.1 0.7 1.8 1.8 1.8 2.9 0 2.2-1.8 3.6-4.7 3.6-3 0-4.8-1.4-4.8-3.7zm6.9-5.9c0-1.1-0.8-1.7-2.1-1.7-1.4 0-2.2 0.6-2.2 1.7 0 1.1 0.8 1.7 2.1 1.7 1.4 0 2.2-0.6 2.2-1.7zm-0.3 5.7c0-0.9-0.7-1.4-1.8-1.4-1.2 0-1.9 0.5-1.9 1.4 0 1 0.7 1.5 1.9 1.5 1.1 0 1.8-0.5 1.8-1.5z"/>
				</g>
			</g>
		</g>
	</g>
</svg>