<svg version="1.2" xmlns="http://www.w3.org/2000/svg" viewBox="0 0 160 300" width="160" height="300">
	<title>393386-PCQ9TI-373-ai</title>
	<defs>
		<clipPath clipPathUnits="userSpaceOnUse" id="cp1">
			<path d="m580 650h-1000v-1000h1000z"/>
		</clipPath>
		<linearGradient id="g1" x2="1" gradientUnits="userSpaceOnUse" gradientTransform="matrix(0,-416.918,123,0,-626.671,424.3)">
			<stop offset="0" stop-color="#292929" stop-opacity="0"/>
			<stop offset="1" stop-color="#292929" stop-opacity="1"/>
		</linearGradient>
	</defs>
	<style>
		.s0 { opacity: .5;fill: url(#g1) } 
		.s1 { fill: #1f1f1f } 
		.s2 { fill: #b5292a } 
		.s3 { fill: #083e63 } 
		.s4 { fill: #0a5384 } 
		.s5 { fill: #062f4a } 
		.s6 { fill: #ebaf3c } 
		.s7 { fill: #292929 } 
		.s8 { fill: #333333 } 
		.s9 { fill: #881f20 } 
		.s10 { fill: #33aeff } 
		.s11 { fill: #ffffff } 
		.s12 { opacity: .1;fill: #ffffff } 
	</style>
	<g id="Objects">
		<g id="&lt;Clip Group&gt;" clip-path="url(#cp1)">
			<g id="&lt;Group&gt;">
				<path id="&lt;Path&gt;" class="s0" d="m141.4 424.3h-123v-416.9h123z"/>
				<g id="&lt;Group&gt;">
					<path id="&lt;Path&gt;" class="s1" d="m65.3 66.6h-31.5v-8.3h31.5z"/>
					<path id="&lt;Path&gt;" class="s1" d="m65.3 91l-31.5-23.7v-8.4l31.5 23.8z"/>
					<path id="&lt;Path&gt;" class="s1" d="m94.6 66.6h31.4v-8.3h-31.4z"/>
					<path id="&lt;Path&gt;" class="s1" d="m94.6 91l31.4-23.7v-8.4l-31.4 23.8z"/>
				</g>
				<g id="&lt;Group&gt;">
					<path id="&lt;Path&gt;" class="s1" d="m94.6 238h31.4v-8.3h-31.4z"/>
					<path id="&lt;Path&gt;" class="s1" d="m94.6 262.4l31.4-23.8v-8.3l-31.4 23.7z"/>
					<path id="&lt;Path&gt;" class="s1" d="m65.3 238h-31.5v-8.3h31.5z"/>
					<path id="&lt;Path&gt;" class="s1" d="m65.3 262.4l-31.5-23.8v-8.3l31.5 23.7z"/>
				</g>
				<path id="&lt;Path&gt;" class="s1" d="m108.2 257.1h-56.5v-59.2h56.5z"/>
				<path id="&lt;Path&gt;" class="s2" d="m79.9 30.3h25.9l17.9 5h17.7v-27.9h-61.5z"/>
				<path id="&lt;Path&gt;" class="s2" d="m79.9 30.3h-25.8l-18 5h-17.7v-27.9h61.5z"/>
				<path id="&lt;Path&gt;" class="s3" d="m141.4 24.6h-123v-17.2h123z"/>
				<path id="&lt;Path&gt;" class="s1" d="m134.7 204.9h-109.5c-3.8 0-6.8-3-6.8-6.7v-79.7c0-2.9 1.9-5.5 4.7-6.4l30.3-9.7h52.4l30.9 9.7c2.8 0.9 4.7 3.5 4.7 6.5v79.6c0 3.7-3 6.7-6.7 6.7z"/>
				<path id="&lt;Path&gt;" class="s4" d="m106.4 106.1l-14.1-88.1c-0.7-4.6-3.8-8.3-8.2-9.9-2.7-1-5.7-1-8.4 0-4.3 1.6-7.5 5.3-8.2 9.9l-14.1 88.1-25.7 7.4c-7.3 2.1-11.5 9.6-9.5 16.9l7.9 28.9c6.5 23.5 15.7 46.3 27.3 67.8 12.4 19.2 40.6 19.2 53 0 11.6-21.5 20.8-44.3 27.3-67.8l7.9-28.9c2-7.3-2.2-14.8-9.4-16.9z"/>
				<path id="&lt;Path&gt;" class="s1" d="m96.8 144.5h-33.8v-37.1c0-9.3 7.6-16.9 16.9-16.9 9.3 0 16.9 7.6 16.9 16.9z"/>
				<path id="&lt;Path&gt;" class="s5" d="m90.4 94.2c-2.9-2.3-6.5-3.7-10.5-3.7-3.9 0-7.5 1.4-10.4 3.7v35.3h20.9z"/>
				<g id="&lt;Group&gt;">
					<g id="&lt;Group&gt;">
						<path id="&lt;Compound Path&gt;" fill-rule="evenodd" class="s6" d="m89.4 124.2l-9.5-7.3-9.5 7.3-1.2-1.5 9.1-7-11.4-8.8h26l-11.3 8.8 9 7zm-16.6-15.4l7.1 5.5 7.2-5.5z"/>
					</g>
				</g>
				<path id="&lt;Path&gt;" class="s2" d="m79.9 241.9c-9.3 0-16.9-7.6-16.9-16.9v-80.5h33.8v80.5c0 9.3-7.6 16.9-16.9 16.9z"/>
				<path id="&lt;Path&gt;" class="s4" d="m74 174.7l-3.8-30.2h19.5l-3.9 30.2c-0.8 7-10.9 7-11.8 0z"/>
				<path id="&lt;Path&gt;" class="s1" d="m37.5 92.9h-16.7c-4.6 0-8.4-3.8-8.4-8.5v-34.9c0-4.6 3.8-8.4 8.4-8.4h16.7c4.6 0 8.4 3.8 8.4 8.4v34.9c0 4.7-3.8 8.5-8.4 8.5z"/>
				<path id="&lt;Path&gt;" class="s7" d="m38.9 85.2h-19.4c-3.9 0-7.1-3.2-7.1-7.1v-22.3c0-3.9 3.2-7 7.1-7h19.4c3.9 0 7 3.1 7 7v22.3c0 3.9-3.1 7.1-7 7.1z"/>
				<path id="&lt;Path&gt;" class="s8" d="m38.7 79.5h-19c-4 0-7.3-3.3-7.3-7.3v-10.5c0-4 3.3-7.2 7.3-7.2h19c4 0 7.2 3.2 7.2 7.2v10.5c0 4-3.2 7.3-7.2 7.3z"/>
				<path id="&lt;Path&gt;" class="s1" d="m139 92.9h-16.7c-4.6 0-8.4-3.8-8.4-8.5v-34.9c0-4.6 3.8-8.4 8.4-8.4h16.7c4.6 0 8.4 3.8 8.4 8.4v34.9c0 4.7-3.8 8.5-8.4 8.5z"/>
				<path id="&lt;Path&gt;" class="s7" d="m140.4 85.2h-19.4c-3.9 0-7.1-3.2-7.1-7.1v-22.3c0-3.9 3.2-7 7.1-7h19.4c3.9 0 7 3.1 7 7v22.3c0 3.9-3.1 7.1-7 7.1z"/>
				<path id="&lt;Path&gt;" class="s1" d="m36.1 267h-19.4c-5.4 0-9.8-4.4-9.8-9.8v-40.7c0-5.4 4.4-9.8 9.8-9.8h19.4c5.4 0 9.8 4.4 9.8 9.8v40.7c0 5.4-4.4 9.8-9.8 9.8z"/>
				<path id="&lt;Path&gt;" class="s1" d="m143.1 267h-19.4c-5.4 0-9.8-4.4-9.8-9.8v-40.7c0-5.4 4.4-9.8 9.8-9.8h19.4c5.4 0 9.8 4.4 9.8 9.8v40.7c0 5.4-4.4 9.8-9.8 9.8z"/>
				<path id="&lt;Path&gt;" class="s4" d="m23.3 38.6h-4.9v-31.2h4.8z"/>
				<path id="&lt;Path&gt;" class="s4" d="m136.6 38.6h4.8v-31.2h-4.8z"/>
				<path id="&lt;Path&gt;" class="s8" d="m140.2 79.5h-19c-4 0-7.3-3.3-7.3-7.3v-10.5c0-4 3.3-7.2 7.3-7.2h19c4 0 7.2 3.2 7.2 7.2v10.5c0 4-3.2 7.3-7.2 7.3z"/>
				<path id="&lt;Path&gt;" class="s7" d="m144.5 257.9h-22.4c-4.5 0-8.2-3.6-8.2-8.1v-25.8c0-4.5 3.7-8.2 8.2-8.2h22.4c4.5 0 8.2 3.7 8.2 8.2v25.8c0 4.5-3.7 8.1-8.2 8.1z"/>
				<path id="&lt;Path&gt;" class="s8" d="m144.3 251.3h-22c-4.6 0-8.4-3.7-8.4-8.4v-12.1c0-4.6 3.8-8.4 8.4-8.4h22c4.6 0 8.4 3.8 8.4 8.4v12.1c0 4.7-3.8 8.4-8.4 8.4z"/>
				<path id="&lt;Path&gt;" class="s7" d="m37.6 257.9h-22.4c-4.5 0-8.2-3.6-8.2-8.1v-25.8c0-4.5 3.7-8.2 8.2-8.2h22.4c4.5 0 8.2 3.7 8.2 8.2v25.8c0 4.5-3.7 8.1-8.2 8.1z"/>
				<path id="&lt;Path&gt;" class="s8" d="m37.4 251.3h-22c-4.6 0-8.4-3.7-8.4-8.4v-12.1c0-4.6 3.8-8.4 8.4-8.4h22c4.6 0 8.4 3.8 8.4 8.4v12.1c0 4.7-3.8 8.4-8.4 8.4z"/>
				<path id="&lt;Path&gt;" class="s3" d="m133.4 280.1h-107v-39h107z"/>
				<path id="&lt;Path&gt;" class="s9" d="m133.4 260.6h-107v-19.5h107z"/>
				<path id="&lt;Path&gt;" class="s4" d="m33.6 289.1h-7.2v-48h7.2z"/>
				<path id="&lt;Path&gt;" class="s4" d="m133.4 289.1h-7.2v-48h7.2z"/>
				<path id="&lt;Path&gt;" class="s3" d="m88 104.8v29.1h-15.4v-29.1h-6.5v23.1c0 7.9 6.4 14.2 14.2 14.2 7.9 0 14.2-6.3 14.2-14.2v-23.1z"/>
				<path id="&lt;Path&gt;" class="s4" d="m70.9 95.8h-1c-2.1 0-3.8 1.7-3.8 3.7v5.3h6.8c0.6 0 1.1-0.5 1.1-1.2v-4.7c0-1.7-1.4-3.1-3.1-3.1z"/>
				<path id="&lt;Path&gt;" class="s4" d="m89.8 95.8h1c2.1 0 3.7 1.7 3.7 3.7v5.3h-6.6c-0.7 0-1.1-0.5-1.1-1.2v-4.8c0-1.6 1.3-3 3-3z"/>
				<path id="&lt;Path&gt;" class="s7" d="m89.2 102.6h-17.7c-0.7 0-1.3-0.5-1.3-1.2v-1.8c0-0.6 0.6-1.2 1.3-1.2h17.7c0.7 0 1.2 0.6 1.2 1.2v1.8c0 0.7-0.5 1.2-1.2 1.2z"/>
				<path id="&lt;Path&gt;" class="s2" d="m94.5 99v29.5c0 6.1-4.9 11-11 11h-6.4c-6.1 0-11-4.9-11-11v-30.8c-1.9 2.8-3.1 6.1-3.1 9.7v37.1h33.8v-37.1c0-3-0.8-5.9-2.3-8.4z"/>
				<path id="&lt;Path&gt;" class="s10" d="m92.6 132.1c0 6.8-5.5 12.2-12.3 12.2-6.7 0-12.2-5.4-12.2-12.2 0-6.8 5.5-12.3 12.2-12.3 6.8 0 12.3 5.5 12.3 12.3z"/>
				<path id="&lt;Path&gt;" class="s7" d="m90.4 125.1c-2.2-3.2-5.9-5.3-10.1-5.3-4.2 0-7.8 2.1-10.1 5.3v2.9c2.3-3.2 5.9-5.3 10.1-5.3 4.2 0 7.9 2.1 10.1 5.3z"/>
				<path id="&lt;Path&gt;" class="s11" d="m70.9 136.1c0 2.1 0.7 4 1.8 5.6 2.1 1.6 4.8 2.6 7.6 2.6 2.9 0 5.6-1 7.7-2.7 1.1-1.5 1.8-3.4 1.8-5.5 0-5.3-4.2-9.5-9.5-9.5-5.2 0-9.4 4.2-9.4 9.5z"/>
				<path id="&lt;Path&gt;" class="s11" d="m68.1 131.8l0.3 0.6v2.6q0.6 2.1 1.8 3.9v-6.8l-1.2-1.4v-3.2q-0.8 2-0.9 4.3z"/>
				<path id="&lt;Path&gt;" class="s11" d="m92.6 131.8l-0.4 0.6v2.6c-0.3 1.4-0.9 2.8-1.7 3.9v-6.8l1.2-1.4v-3.2q0.8 2 0.9 4.3z"/>
				<path id="&lt;Path&gt;" class="s12" d="m29.9 265.1c-1.9 0-3.5-1.6-3.5-3.5v-14.6c0-1.9 1.6-3.5 3.5-3.5 1.9 0 3.5 1.6 3.5 3.5v14.6c0 1.9-1.6 3.5-3.5 3.5z"/>
				<path id="&lt;Path&gt;" class="s12" d="m129.8 265.1c-1.9 0-3.5-1.6-3.5-3.5v-14.6c0-1.9 1.6-3.5 3.5-3.5 2 0 3.5 1.6 3.5 3.5v14.6c0 1.9-1.5 3.5-3.5 3.5z"/>
				<path id="&lt;Path&gt;" class="s12" d="m81.7 85.2c-2.1 0-3.8-1.7-3.8-3.9v-38.8c0-2.2 1.7-3.9 3.8-3.9 2.1 0 3.9 1.7 3.9 3.9v38.8c0 2.2-1.8 3.9-3.9 3.9z"/>
				<path id="&lt;Path&gt;" class="s12" d="m52.9 115.6l-21.5 5.7c-1.7 0.4-3.4-0.6-3.9-2.3-0.4-1.7 0.6-3.4 2.3-3.9l21.5-5.6c1.7-0.5 3.4 0.6 3.9 2.3 0.4 1.6-0.6 3.4-2.3 3.8z"/>
				<path id="&lt;Path&gt;" class="s12" d="m108.8 115.6l21.5 5.7c1.7 0.4 3.4-0.6 3.9-2.3 0.4-1.7-0.6-3.4-2.3-3.9l-21.5-5.6c-1.7-0.5-3.4 0.6-3.9 2.3-0.4 1.6 0.6 3.4 2.3 3.8z"/>
				<path id="&lt;Path&gt;" class="s12" d="m109.9 151l-8.2 36.8c-3.6 20.6 1.5 20.5 1.5 20.5 4.5 1 11-14 12-18.4l10.9-35.3c1-4.5-1.8-8.9-6.3-9.9-4.5-1-8.9 1.8-9.9 6.3z"/>
				<path id="&lt;Path&gt;" class="s12" d="m49.2 151l8.2 36.8c3.7 20.6-1.5 20.5-1.5 20.5-4.5 1-11-14-12-18.4l-10.8-35.3c-1-4.5 1.8-8.9 6.3-9.9 4.4-1 8.8 1.8 9.8 6.3z"/>
				<path id="&lt;Path&gt;" class="s12" d="m20.7 201.2c-0.6 0-1.1-0.5-1.1-1.1v-54.7c0-0.6 0.5-1.1 1.1-1.1 0.6 0 1.1 0.5 1.1 1.1v54.7c0 0.6-0.5 1.1-1.1 1.1z"/>
				<path id="&lt;Path&gt;" class="s12" d="m138.4 201.2c-0.6 0-1.1-0.5-1.1-1.1v-54.7c0-0.6 0.5-1.1 1.1-1.1 0.6 0 1.1 0.5 1.1 1.1v54.7c0 0.6-0.5 1.1-1.1 1.1z"/>
				<path id="&lt;Path&gt;" class="s12" d="m58.7 60.7h-11.3c-0.4 0-0.8-0.4-0.8-0.9 0-0.5 0.4-0.9 0.8-0.9h11.3c0.5 0 0.9 0.4 0.9 0.9 0 0.5-0.4 0.9-0.9 0.9z"/>
				<path id="&lt;Path&gt;" class="s12" d="m63.9 23h-38.2c-0.7 0-1.3-0.6-1.3-1.3 0-0.7 0.6-1.2 1.3-1.2h38.2c0.7 0 1.3 0.5 1.3 1.2 0 0.7-0.6 1.3-1.3 1.3z"/>
				<path id="&lt;Path&gt;" class="s12" d="m121.3 277h-81.6c-1 0-1.8-0.8-1.8-1.8 0-1 0.8-1.8 1.8-1.8h81.6c1 0 1.8 0.8 1.8 1.8 0 1-0.8 1.8-1.8 1.8z"/>
				<path id="&lt;Path&gt;" class="s12" d="m134.1 23h-38.3c-0.7 0-1.2-0.6-1.2-1.3 0-0.7 0.5-1.2 1.2-1.2h38.3c0.7 0 1.2 0.5 1.2 1.2 0 0.7-0.5 1.3-1.2 1.3z"/>
				<path id="&lt;Path&gt;" class="s12" d="m56.2 78.6l-9.2-6.5c-0.4-0.3-0.5-0.8-0.3-1.2 0.3-0.4 0.9-0.5 1.2-0.2l9.3 6.5c0.4 0.3 0.5 0.8 0.2 1.2-0.3 0.4-0.8 0.5-1.2 0.2z"/>
				<path id="&lt;Path&gt;" class="s12" d="m104 78.6l9.3-6.5c0.3-0.3 0.4-0.8 0.2-1.2-0.3-0.4-0.8-0.5-1.2-0.2l-9.3 6.5c-0.4 0.3-0.5 0.8-0.2 1.2 0.3 0.4 0.8 0.5 1.2 0.2z"/>
				<path id="&lt;Path&gt;" class="s12" d="m112.1 60.7h-11.3c-0.5 0-0.9-0.4-0.9-0.9 0-0.5 0.4-0.9 0.9-0.9h11.3c0.4 0 0.8 0.4 0.8 0.9 0 0.5-0.4 0.9-0.8 0.9z"/>
				<path id="&lt;Path&gt;" class="s12" d="m80 177.2c-1.5 0-2.8-1.2-2.8-2.8v-23.3c0-1.6 1.3-2.9 2.8-2.9 1.6 0 2.9 1.3 2.9 2.9v23.3c0 1.6-1.3 2.8-2.9 2.8z"/>
				<path id="&lt;Path&gt;" class="s12" d="m80 219.2c-1.5 0-2.8-1.2-2.8-2.8v-29c0-1.6 1.3-2.9 2.8-2.9 1.6 0 2.9 1.3 2.9 2.9v29c0 1.6-1.3 2.8-2.9 2.8z"/>
				<path id="&lt;Path&gt;" class="s7" d="m88.5 156.9h-16.9c-0.9 0-1.6-0.7-1.6-1.6v-5.4c0-0.9 0.7-1.7 1.6-1.7h16.9c0.9 0 1.6 0.8 1.6 1.7v5.4c0 0.9-0.7 1.6-1.6 1.6z"/>
				<path id="&lt;Path&gt;" class="s12" d="m20.7 37.2c-1 0-1.9-0.9-1.9-1.9v-13.9c0-1 0.9-1.8 1.9-1.8 1 0 1.8 0.8 1.8 1.8v13.9c0 1-0.8 1.9-1.8 1.9z"/>
				<path id="&lt;Path&gt;" class="s12" d="m139 37.2c-1 0-1.8-0.9-1.8-1.9v-13.9c0-1 0.8-1.8 1.8-1.8 1 0 1.8 0.8 1.8 1.8v13.9c0 1-0.8 1.9-1.8 1.9z"/>
				<path id="&lt;Path&gt;" class="s12" d="m47 378.8c2.8 0 5-2.3 5-5.1v-99.4c0-2.8-2.2-5.1-5-5.1-2.8 0-5 2.3-5 5.1v99.4c0 2.8 2.2 5.1 5 5.1z"/>
				<path id="&lt;Path&gt;" class="s12" d="m14.6 297.8c-2.8 0-5.1-2.2-5.1-5v-34.8c0-2.8 2.3-5 5.1-5 2.7 0 5 2.2 5 5v34.8c0 2.8-2.3 5-5 5z"/>
				<path id="&lt;Path&gt;" class="s12" d="m17.7 115.3c-2.8 0-5-2.3-5-5v-34.8c0-2.8 2.2-5.1 5-5.1 2.8 0 5 2.3 5 5.1v34.8c0 2.7-2.2 5-5 5z"/>
				<path id="&lt;Path&gt;" class="s12" d="m137.2 122.7c-2.8 0-5.1-2.3-5.1-5v-34.8c0-2.8 2.3-5 5.1-5 2.7 0 5 2.2 5 5v34.8c0 2.7-2.3 5-5 5z"/>
				<path id="&lt;Path&gt;" class="s12" d="m147.8 384c2.7 0 5-2.3 5-5.1v-53.6c0-2.8-2.3-5-5.1-5-2.7 0-5 2.2-5 5v53.6c0 2.8 2.3 5.1 5 5.1z"/>
				<path id="&lt;Path&gt;" class="s12" d="m107.7 533.2c2.8 0 5.1-2.3 5.1-5.1v-65.5c0-2.8-2.3-5-5.1-5-2.7 0-5 2.2-5 5v65.5c0 2.8 2.3 5.1 5 5.1z"/>
				<path id="&lt;Path&gt;" class="s12" d="m14.6 403c2.7 0 5-2.2 5-5v-75.3c0-2.8-2.3-5-5-5-2.8 0-5.1 2.2-5.1 5v75.3c0 2.8 2.3 5 5.1 5z"/>
				<path id="&lt;Path&gt;" class="s12" d="m147.4 308c-2.8 0-5-2.3-5-5v-59.5c0-2.8 2.2-5 5-5 2.8 0 5 2.2 5 5v59.5c0 2.7-2.2 5-5 5z"/>
				<path id="&lt;Path&gt;" class="s12" d="m74 475c2.8 0 5-2.2 5-5v-180c0-2.7-2.2-5-5-5-2.8 0-5 2.3-5 5v180c0 2.8 2.2 5 5 5z"/>
				<path id="&lt;Path&gt;" class="s12" d="m74 496.4c2.8 0 5-2.2 5-5v-5.9c0-2.8-2.2-5-5-5-2.8 0-5 2.2-5 5v5.9c0 2.8 2.2 5 5 5z"/>
				<path id="&lt;Path&gt;" class="s12" d="m107.7 452.2c2.8 0 5.1-2.2 5.1-5v-185c0-2.8-2.3-5-5.1-5-2.7 0-5 2.2-5 5v185c0 2.8 2.3 5 5 5z"/>
				<g id="&lt;Group&gt;">
					<path id="&lt;Compound Path&gt;" class="s2" d="m75.4 20.8c0-2.4 2-4 5-4 1.8 0 3.6 0.6 4.8 1.5l-1.3 2.5c-0.9-1-2.1-1.5-3.2-1.5-1.4 0-2.1 0.5-2.1 1.5 0 1 0.7 1.5 2.1 1.5h2v1.7l-2.8 2.7h4.7v2.5h-8.6v-1.9l3.3-3-0.6-0.1c-1.9-0.3-3.3-1.5-3.3-3.4z"/>
				</g>
			</g>
		</g>
	</g>
</svg>